<svg
   version="1.1"
   id="svg1"
   width="569.65332"
   height="242.30667"
   viewBox="0 0 569.65332 242.30667"
   sodipodi:docname="Smart Byte - Horizontal.eps"
   xmlns:inkscape="http://www.inkscape.org/namespaces/inkscape"
   xmlns:sodipodi="http://sodipodi.sourceforge.net/DTD/sodipodi-0.dtd"
   xmlns="http://www.w3.org/2000/svg"
   xmlns:svg="http://www.w3.org/2000/svg">
  <defs
     id="defs1" />
  <sodipodi:namedview
     id="namedview1"
     pagecolor="#ffffff"
     bordercolor="#000000"
     borderopacity="0.25"
     inkscape:showpageshadow="2"
     inkscape:pageopacity="0.0"
     inkscape:pagecheckerboard="0"
     inkscape:deskcolor="#d1d1d1">
    <inkscape:page
       x="0"
       y="0"
       inkscape:label="1"
       id="page1"
       width="569.65332"
       height="242.30667"
       margin="0"
       bleed="0" />
  </sodipodi:namedview>
  <g
     id="g1"
     inkscape:groupmode="layer"
     inkscape:label="1">
    <g
       id="group-R5">
      <path
         id="path2"
         d="m 2396.56,1359.11 c -43.7,19.6 -108.9,35.7 -175.8,51.8 -66,16 -91.9,37.4 -91.9,74.9 0,44.6 36.6,69.6 106.2,69.6 75,0 111.5,-29.39 117.8,-90.1 h 117.8 c -4.5,113.3 -88.4,194.5 -238.3,194.5 -144.6,0 -216.8,-75.79 -216.8,-182 0,-75 35.7,-117.79 99,-146.4 42,-18.7 89.3,-29.39 162.4,-45.5 74.1,-16 92,-40.1 92,-74.89 0,-52.71 -42,-83.91 -115.2,-83.91 -79.4,0 -130.3,37.5 -132,98.1 h -119.61 c 2.71,-132.9 104.41,-198.1 250.71,-198.1 138.4,0 236.5,58 236.5,188.3 0,83.9 -41,120.5 -92.8,143.7"
         style="fill:#183a54;fill-opacity:1;fill-rule:nonzero;stroke:none"
         transform="matrix(0.13333333,0,0,-0.13333333,0,242.30667)" />
      <path
         id="path3"
         d="m 3000.76,1498.31 c -55.41,0 -94.6,-21.4 -118.7,-69.6 -33.9,50.9 -62.5,69.6 -122.31,69.6 -57.99,0 -98.99,-17.79 -128.49,-75.79 v 64.19 h -108.9 v -439.1 h 116 v 266.91 c 0,57.09 24.1,85.59 70.5,85.59 50.89,0 69.59,-17.8 69.59,-88.3 v -264.2 h 116.11 v 262.41 c 0,53.59 31.2,93.69 73.99,93.69 41.1,0 68.7,-37.5 68.7,-90.1 v -266 h 113.41 v 304.41 c 0,82.09 -61.61,146.29 -149.9,146.29"
         style="fill:#183a54;fill-opacity:1;fill-rule:nonzero;stroke:none"
         transform="matrix(0.13333333,0,0,-0.13333333,0,242.30667)" />
      <path
         id="path4"
         d="m 3461.16,1214.52 c -0.9,-51.71 -45.5,-95.5 -105.3,-95.5 -36.6,0 -56.21,16.09 -56.21,49.09 0,37.5 21.4,56.2 87.5,68.7 42.81,8.1 63.31,14.3 74.91,25.9 z m -70.5,283.79 c -141.01,0 -191.01,-63.29 -192.7,-154.4 h 107.9 c 5.4,39.3 26.8,65.2 79.49,65.2 45.51,0 74.01,-17 74.01,-45.5 0,-30.4 -16,-42 -74.01,-50 -116.9,-16.09 -201.69,-30.4 -201.69,-157.09 0,-71.41 46.4,-120.5 146.3,-120.5 58.9,0 105.3,20.59 133,50.89 0.9,-13.39 3.59,-28.5 7.1,-39.3 h 108 v 277.6 c 0,110.6 -48.2,173.1 -187.4,173.1"
         style="fill:#183a54;fill-opacity:1;fill-rule:nonzero;stroke:none"
         transform="matrix(0.13333333,0,0,-0.13333333,0,242.30667)" />
      <path
         id="path5"
         d="m 3868.06,1498.31 c -47.3,0 -91.9,-5.29 -130.3,-64.2 v 52.6 h -108.8 v -439.1 h 116 v 228.5 c 0,70.5 34.79,106.2 106.2,106.2 10.7,0 21.4,-0.9 32.1,-2.7 v 118.7 h -15.2"
         style="fill:#183a54;fill-opacity:1;fill-rule:nonzero;stroke:none"
         transform="matrix(0.13333333,0,0,-0.13333333,0,242.30667)" />
      <path
         id="path6"
         d="m 4272.36,1404.61 v 82.1 h -242.71 v 118.7 h -114.3 v -392.7 c 0,-94.6 50.91,-176.69 179.4,-176.69 124.01,0 177.61,83 177.61,175.89 v 124.9 h -108 v -114.2 c 0,-54.5 -21.4,-85.7 -67.81,-85.7 -47.29,0 -66.9,32.11 -66.9,87.4 v 180.3 h 242.71"
         style="fill:#183a54;fill-opacity:1;fill-rule:nonzero;stroke:none"
         transform="matrix(0.13333333,0,0,-0.13333333,0,242.30667)" />
      <path
         id="path7"
         d="m 2278.75,466.262 h -157 v 159.699 h 158.8 c 55.41,0 89.3,-23.199 89.3,-74.902 0,-48.2 -33.89,-84.797 -91.1,-84.797 z m -157,389.101 h 149 c 58,0 82.11,-18.8 82.11,-64.304 0,-41.899 -25.91,-64.2 -75,-64.2 h -156.11 z m 278.4,-169.601 c 41.1,17 72.3,59.797 72.3,110.699 0,99.004 -62.5,161.504 -178.5,161.504 h -291.8 V 365.359 h 266.8 c 149.11,0 221.3,68.801 221.3,176.7 0,84.8 -40.1,125 -90.1,143.703"
         style="fill:#49bcdc;fill-opacity:1;fill-rule:nonzero;stroke:none"
         transform="matrix(0.13333333,0,0,-0.13333333,0,242.30667)" />
      <path
         id="path8"
         d="M 2796.35,804.461 V 536.762 c 0,-47.301 -36.6,-82.102 -89.2,-82.102 -49.09,0 -74.09,27.699 -74.09,82.102 V 804.461 H 2517.05 V 519.762 c 0,-96.301 68.71,-158.801 160.6,-158.801 54.5,0 102.6,23.199 118.7,62.5 v -71.402 c 0,-58 -38.39,-94.598 -80.29,-94.598 -60.71,0 -91.01,32.098 -91.01,83.898 h -108 c 0,-113.398 65.1,-183.898 193.61,-183.898 112.5,0 201.69,72.301 201.69,196.301 v 450.699 h -116"
         style="fill:#49bcdc;fill-opacity:1;fill-rule:nonzero;stroke:none"
         transform="matrix(0.13333333,0,0,-0.13333333,0,242.30667)" />
      <path
         id="path9"
         d="m 3321.95,722.359 v 82.102 h -242.7 v 118.703 h -114.2 V 530.461 c 0,-94.602 50.81,-176.699 179.3,-176.699 124.11,0 177.6,83 177.6,175.898 v 124.899 h -108 v -114.2 c 0,-54.5 -21.4,-85.699 -67.8,-85.699 -47.3,0 -66.9,32.102 -66.9,87.399 v 180.3 h 242.7"
         style="fill:#49bcdc;fill-opacity:1;fill-rule:nonzero;stroke:none"
         transform="matrix(0.13333333,0,0,-0.13333333,0,242.30667)" />
      <path
         id="path10"
         d="m 3568.26,724.16 c 45.49,0 88.39,-31.199 90.1,-96.398 h -179.31 c 4.41,60.699 42.8,96.398 89.21,96.398 z m 5.39,-278.398 c -57.1,0 -94.6,42.797 -98.19,108.797 h 302.5 c 0,174.101 -71.41,261.5 -206.11,261.5 -134.8,0 -212.4,-87.399 -212.4,-223.098 0,-158.801 73.2,-239.199 219.5,-239.199 93.7,0 166,50.898 192.8,141 h -119.6 c -8,-30.301 -41.09,-49 -78.5,-49"
         style="fill:#49bcdc;fill-opacity:1;fill-rule:nonzero;stroke:none"
         transform="matrix(0.13333333,0,0,-0.13333333,0,242.30667)" />
      <path
         id="path11"
         d="m 751.855,974.926 c -11.414,-4.582 -22.328,-6.25 -32.742,-5.914 -12.996,0.5 -25.41,-5.168 -34.66,-14.414 L 561.48,831.625 c -8.082,-8.168 -18.746,-12.164 -29.328,-12.164 -10.664,0 -21.246,3.996 -29.41,12.164 -16.246,16.242 -16.246,42.57 0,58.734 l 118.727,118.731 c 10.664,10.66 16.078,25.41 15.246,40.49 -0.25,5.08 -0.082,10.33 0.582,15.58 4.918,38.91 36.824,70.07 75.816,73.98 50.657,5.08 93.481,-34.24 94.067,-83.73 0.5,-35.41 -22.496,-67.152 -55.325,-80.484 z M 591.973,317.73 c 0,-24.332 -20.828,-43.742 -45.575,-41.41 -21.66,2.09 -37.492,21.5 -37.492,43.16 v 56.911 c 0,17.738 -7.078,34.738 -19.578,47.238 l -45.656,45.652 c -8.914,8.918 -20.996,13.918 -33.574,13.828 -42.66,-0.328 -81.653,25 -92.735,66.161 -3.164,11.66 -4.496,22.742 -3.996,33.57 0.5,10.672 -4.168,20.91 -11.664,28.41 l -77.734,77.738 c -19.496,19.492 -30.41,45.903 -30.41,73.481 V 961.68 c 0,27.742 10.996,54.32 30.66,73.98 l 84.23,84.23 c 6.668,6.67 9.832,16.34 7.668,25.58 -4.168,17.92 -4.086,37.41 1.914,57.82 10.914,36.83 40.324,66.24 77.153,77.16 19.66,5.74 38.492,5.99 55.988,2.33 10.414,-2.25 21.246,1.08 28.91,8.74 l 77.648,77.66 c 3.918,3.91 7.415,8.16 10.583,12.66 7.75,11.25 10.582,25.33 8.164,38.82 -1.332,7.84 -1.832,15.84 -1.332,24.08 3.414,52.83 47.988,95.4 100.812,96.31 57.652,1 104.645,-45.4 104.645,-102.81 0,-56.82 -45.993,-102.81 -102.813,-102.81 -2.082,0 -4.164,0.09 -6.168,0.17 -9.996,0.67 -20.074,-0.58 -28.992,-5.17 -8.082,-4.08 -15.496,-9.41 -22.078,-15.99 l -75.903,-75.9 c -8.578,-8.58 -11.414,-21.41 -7.664,-33.08 5.332,-16.41 7,-34.49 4,-53.32 -7.664,-48.24 -46.406,-86.98 -94.644,-94.73 -19.746,-3.09 -38.578,-1.09 -55.738,4.83 -10.082,3.5 -21.332,0.83 -28.997,-6.75 l -54.238,-54.32 c -19.664,-19.58 -30.66,-46.158 -30.66,-73.9 V 796.801 c 0,-27.582 10.914,-53.992 30.41,-73.492 l 41.742,-41.739 c 9.496,-9.5 23.329,-14 36.493,-10.75 10.832,2.75 22.496,3.59 34.492,2.168 43.242,-4.918 78.398,-39.988 83.316,-83.226 1.25,-10.672 0.75,-21 -1.332,-30.832 -3.168,-15.578 1.496,-31.739 12.746,-42.989 l 57.821,-57.902 c 12.496,-12.5 19.578,-29.5 19.578,-47.238 z m 406.082,940.55 0.168,334.52 c -3.168,36.9 -5.418,76.15 -20.082,110.47 -60.485,142.22 -289.188,143.05 -391.25,48.49 -26.578,-24.74 -44.157,-63.49 -81.817,-73.4 -18.66,-4.91 -40.238,-4.08 -59.402,-8 -118.391,-24.82 -242.199,-158.63 -252.695,-280.02 -2.5,-30.08 2.746,-59.16 -20.997,-82.9 -24.078,-23.99 -53.488,-38.49 -78.7339,-65.9 -73.9023,-80.32 -106.4766,-173.97 -88.31641,-283.692 0.25,-1.418 0.41797,-2.918 0.83594,-4.332 0.5,-2.836 1.33203,-5.668 2.16406,-8.668 0.5,-1.5 0.91797,-2.996 1.41797,-4.414 0.33203,-1.25 0.75004,-2.5 1.16404,-3.75 0.5,-1.5 1,-2.832 1.5,-4.332 4.336,-12.664 9.0821,-25.747 10.5821,-37.993 0.0859,-0.832 0.1679,-1.582 0.25,-2.414 0.25,-0.918 0.332,-1.918 0.25,-2.918 -0.3321,-5.75 -1.4141,-11.832 -3,-17.828 C 15.6797,854.199 7.59766,836.371 4.92969,820.375 -13.2305,710.648 19.3438,617 93.2461,536.691 c 25.2459,-27.421 54.6559,-42 78.7339,-65.992 23.743,-23.66 18.497,-52.738 20.997,-82.82 10.496,-121.469 134.304,-255.188 252.695,-280.02 19.164,-4 40.742,-3.168 59.402,-8.0777 37.66,-9.9219 55.239,-48.5821 81.817,-73.3204 0.25,-0.25 0.5,-0.4218 0.75,-0.6718 57.988,-53.2383 153.136,-19.32816 166.214,58.4101 1.833,10.75 2.75,22.2418 2.668,34.4918 0.915,207.039 -2.085,414.161 1.582,621.039 6.915,49.239 34.493,80.813 66.489,116.055 9.914,10.914 20.742,21.996 31.906,33.324 4.168,4.25 8.332,8.5 12.75,12.75 3.832,3.914 7.828,7.914 11.746,11.996 11.164,11.247 22.328,22.747 33.074,34.575 7.832,8.582 15.414,17.25 22.582,26.164 1.5,1.75 2.832,3.582 4.246,5.332 1.5,1.75 2.836,3.582 4.168,5.414 2.832,3.5 5.5,7.164 8.082,10.832 3.665,5.248 7.332,10.578 10.665,15.918 1.25,2.16 2.582,4.25 3.75,6.41 1.082,1.83 2.25,3.75 3.246,5.67 4.336,7.74 8.168,15.58 11.418,23.66 0.75,1.75 1.496,3.66 2.082,5.49 0.75,1.92 1.5,4 2.164,5.92 20.997,62.65 13.164,134.14 11.582,199.04"
         style="fill:#183a54;fill-opacity:1;fill-rule:nonzero;stroke:none"
         transform="matrix(0.13333333,0,0,-0.13333333,0,242.30667)" />
      <path
         id="path12"
         d="m 1289.55,897.563 c -44.46,-6.946 -80.58,-42.235 -89.01,-86.415 -2.68,-14.168 -2.5,-27.968 -0.09,-40.847 3.61,-18.699 -1.21,-38.063 -13.89,-52.231 l -68.63,-76.601 v 0 C 1101.94,623.578 1093.1,600.422 1093.1,576.43 V 539.41 417.988 c 0,-13.058 -6.48,-25.199 -17.32,-32.238 -17.96,-11.57 -32.23,-28.34 -40.65,-48.059 -5.84,-13.16 -8.9,-27.703 -8.9,-42.98 0,-14.539 2.78,-28.34 7.97,-40.941 8.24,-20.372 22.6,-37.598 40.75,-49.551 11.02,-7.309 17.97,-19.36 17.97,-32.598 v -19.262 c 0,-2.687 -0.09,-4.359 -0.19,-5.379 l -0.09,-0.46 v -0.461 c -0.18,-2.227 -0.55,-4.45 -0.92,-6.579 -6.12,-31.949 -34.64,-56.1206 -67.71,-56.1206 -19.73,0 -37.975,8.2422 -51.311,23.0626 -9.539,10.648 -15.465,23.797 -17.133,37.789 V 664.16 c 0,34.551 12.688,67.891 35.75,93.551 l 198.574,221.82 20.01,22.319 c 14.07,15.84 21.95,36.31 21.95,57.52 v 513.66 c 0,19.67 9.39,37.97 24.93,50.02 25.55,19.83 42.03,50.85 42.03,85.75 0,61.32 -50.94,110.78 -112.9,108.37 -57.15,-2.22 -103.83,-50.57 -104.1,-107.9 -0.19,-35.01 16.2,-66.22 41.95,-86.14 15.56,-12.13 24.92,-30.47 24.92,-50.1 v -481.89 c 0,-21.21 -7.88,-41.68 -21.96,-57.52 L 908.055,789.379 c -22.969,-25.738 -35.66,-58.988 -35.66,-93.449 V 249.141 c -0.461,-4.172 -0.743,-8.43 -0.743,-12.692 v -84.09 c 0,-39 14.821,-74.6481 38.996,-101.609 C 938.617,19.6289 979.09,0 1024.01,0 c 79.1,0 144.58,61.1289 151.62,138.559 0.46,4.531 0.65,9.16 0.65,13.8 v 19.172 c 0,13.239 7.03,25.278 18.06,32.598 18.06,11.851 32.23,28.902 40.66,48.992 5.28,12.789 8.24,26.859 8.24,41.59 0,12.129 -1.95,23.711 -5.74,34.551 v 0.09 c -0.74,2.41 -1.58,4.718 -2.5,6.949 -8.34,20 -22.51,36.859 -40.39,48.711 -11.2,7.32 -18.33,19.449 -18.33,32.879 V 544.68 c 0,24.039 8.86,47.23 24.9,65.14 l 48.26,53.879 c 12.32,13.801 30.57,20.102 49,18.52 11.58,-0.918 23.62,0 36.12,3.25 42.05,11.019 74.37,47.051 80.02,90.113 9.63,72.43 -52.33,133.375 -125.03,121.981"
         style="fill:#49bcdc;fill-opacity:1;fill-rule:nonzero;stroke:none"
         transform="matrix(0.13333333,0,0,-0.13333333,0,242.30667)" />
      <path
         id="path13"
         d="m 1622.67,886.391 -79.47,113.55 c -3.98,5.649 -6.11,12.409 -6.11,19.359 v 131.52 c 0,22.32 11.02,42.69 28.43,56.68 25.75,20.47 42.15,52.05 42.15,87.52 0,63.26 -52.24,114.29 -116.05,112.16 -59.37,-1.94 -107.91,-51.96 -108.37,-111.32 -0.28,-36.68 17.14,-69.28 44.18,-89.93 17.04,-13.07 26.49,-33.63 26.49,-55.02 V 992.992 c 0,-6.945 2.13,-13.707 6.11,-19.355 l 79.47,-113.551 c 8.89,-12.688 13.71,-27.875 13.71,-43.348 V 770.34 c 0,-15.559 -4.82,-30.75 -13.71,-43.531 l -60.85,-86.879 -27.33,-39.071 c -11.27,-16.097 -17.31,-35.277 -17.31,-54.937 v -38.211 c 0,-15.152 -7.16,-29.723 -19.84,-38.02 -30.56,-20.019 -50.78,-54.511 -50.81,-93.769 -0.04,-59.453 48.33,-109.902 107.73,-112.223 64.03,-2.488 116.72,48.672 116.72,112.141 0,38.551 -19.46,72.5 -49.08,92.691 -13.13,8.949 -21.55,23.27 -21.55,39.16 v 12.008 c 0,19.66 6.04,38.852 17.32,54.949 l 88.08,125.864 c 8.98,12.777 13.8,27.968 13.8,43.617 v 98.824 c 0,15.559 -4.82,30.75 -13.71,43.438"
         style="fill:#49bcdc;fill-opacity:1;fill-rule:nonzero;stroke:none"
         transform="matrix(0.13333333,0,0,-0.13333333,0,242.30667)" />
    </g>
  </g>
</svg>
